<?xml version="1.0" encoding="utf-8"?>
<!-- Generator: Adobe Illustrator 26.0.3, SVG Export Plug-In . SVG Version: 6.00 Build 0)  -->
<svg version="1.1" id="레이어_1" xmlns="http://www.w3.org/2000/svg" xmlns:xlink="http://www.w3.org/1999/xlink" x="0px"
	 y="0px" viewBox="0 0 233 233" style="enable-background:new 0 0 233 233;" xml:space="preserve">
<style type="text/css">
	.st0{fill:none;}
	.st1{enable-background:new    ;}
	.st2{fill:#FFFFFF;}
	.st3{clip-path:url(#SVGID_00000144318775084403100770000018412117168227395476_);}
	.st4{fill:#E4E4E4;}
</style>
<g id="그룹_18897" transform="translate(-97 -92)">
	<rect id="사각형_24003" x="97" y="92" class="st0" width="233" height="233"/>
	<g class="st1">
		<path class="st2" d="M151.2,256.3l-1.1-1.4c2.8-1.3,5-3.1,6.2-5.6l-5.6,0.6l-0.3-1.6l6.5-0.5c0.3-0.8,0.4-1.7,0.5-2.6h-6.3v-1.5
			h8.1C159.2,249.9,156.1,253.8,151.2,256.3z M163.6,249h2.8v1.5h-2.8v9h-1.8v-17.5h1.8V249z"/>
		<path class="st2" d="M173.8,253.5c0.8,0,1.6-0.1,2.1-0.2l0.2,1.4c-0.9,0.1-2.6,0.3-4.1,0.4c-1.7,0.1-3.1,0.2-4.6,0.2l-0.3-1.5
			c0.6,0,1.2,0,1.9,0l-0.5-7l1.7-0.2l0.4,7.2l1.2-0.1c0.1,0,0.2,0,0.4,0l0.4-7.1l1.7,0.2L173.8,253.5z M167.6,245.5V244h8v1.4H167.6
			z M177.2,258.5v-8.4H175v-1.4h2.2v-6.4h1.7v16.2H177.2z M180.5,259.4v-17.5h1.7v17.5H180.5z"/>
		<path class="st2" d="M189.9,257.2v-1.4h7v-3.9h-5.1v-8.3h12v8.3h-5.1v3.9h7v1.4H189.9z M202.1,244.9h-8.5v5.4h8.5V244.9z"/>
		<path class="st2" d="M212,243.2c3.1,0,4.4,2.7,4.4,6.2c0,3.4-1.3,6.2-4.4,6.2c-3.1,0-4.4-2.7-4.4-6.2S208.9,243.2,212,243.2z
			 M212,244.7c-1.8,0-2.7,2-2.7,4.7c0,2.7,0.9,4.6,2.7,4.6c1.8,0,2.7-2,2.7-4.6C214.6,246.6,213.7,244.7,212,244.7z M220.8,250.3
			v9.1H219v-17.5h1.8v6.9h2.8v1.5H220.8z"/>
		<path class="st2" d="M230.1,249.9h6.6v1.5h-6.6V249.9z"/>
		<path class="st2" d="M244.9,256.3l-1.1-1.4c2.8-1.3,5-3.1,6.2-5.6l-5.6,0.6l-0.3-1.6l6.5-0.5c0.3-0.8,0.4-1.7,0.5-2.6h-6.3v-1.5
			h8.1C252.9,249.9,249.8,253.8,244.9,256.3z M257.3,249h2.8v1.5h-2.8v9h-1.8v-17.5h1.8V249z"/>
		<path class="st2" d="M261.1,257.2v-1.4h7v-3.9H263v-8.3h12v8.3h-5.1v3.9h7v1.4H261.1z M273.3,244.9h-8.5v5.4h8.5V244.9z"/>
	</g>
	<g id="그룹_8" transform="translate(97 159)">
		<g>
			<defs>
				<rect id="SVGID_1_" y="0" width="233" height="48.2"/>
			</defs>
			<clipPath id="SVGID_00000047028548897160232720000016078139726178671778_">
				<use xlink:href="#SVGID_1_"  style="overflow:visible;"/>
			</clipPath>
			
				<g id="그룹_7" transform="translate(0 0)" style="clip-path:url(#SVGID_00000047028548897160232720000016078139726178671778_);">
				<path id="패스_8" class="st4" d="M0,24.6v-1.4C0,6.5,9.3,0,21.2,0c4-0.1,7.9,0.8,11.5,2.6v4.6C29,5.6,25,4.7,21,4.7
					C12.1,4.7,5.8,10,5.8,22.3v2.3c0,12,4.5,18.9,15.2,18.9c4.3,0,8.5-1,12.2-3.1v4.7c-3.9,2.1-8.4,3.2-12.9,3.1
					C7.7,48.2,0,40.4,0,24.6"/>
				<path id="패스_9" class="st4" d="M73,0.8h5.4l17.1,46.7h-5.8l-4.9-13.6H66l-4.8,13.6h-5.3L73,0.8z M67.6,29.2H83l-7.6-21h-0.1
					L67.6,29.2z"/>
				<path id="패스_10" class="st4" d="M121,0.8h8.2l13.5,39.5h0.1l13.4-39.5h8.1v46.7h-5.6V8h-0.2L145,47.5h-5.2L126.4,8h-0.2
					v39.5H121L121,0.8z"/>
				<path id="패스_11" class="st4" d="M192.1,24.6v-1.1c0-14.7,7.7-23.5,20.6-23.5C225.3,0,233,8.3,233,23.6v1.1
					c0,14.7-7.7,23.5-20.5,23.5C199.8,48.2,192.1,40,192.1,24.6 M227.1,25.8v-2.2c0-11.3-4.1-19-14.7-19.1c-9.6,0-14.4,7.5-14.4,18
					v2.2c0,11.3,4.2,19.1,14.6,19.1C222.3,43.7,227.1,36.1,227.1,25.8"/>
			</g>
		</g>
	</g>
</g>
</svg>
